HIERARCHY
ROOT SpineBase
{
  OFFSET 0.000000 0.000000 0.000000
  CHANNELS 6 Xposition Yposition Zposition Zrotation Xrotation Yrotation
  JOINT SpineMid
  {
    OFFSET -0.000000 31.600650 0.000000
    CHANNELS 3 Zrotation Xrotation Yrotation
    JOINT SpineShoulder
    {
      OFFSET 0.185960 23.444168 -0.857465
      CHANNELS 3 Zrotation Xrotation Yrotation
      JOINT Neck
      {
        OFFSET 0.132203 7.747335 -0.635215
        CHANNELS 3 Zrotation Xrotation Yrotation
        JOINT Head
        {
          OFFSET 5.394192 12.330642 5.624959
          CHANNELS 3 Zrotation Xrotation Yrotation
          End Site
          {
            OFFSET 0 0 0
          }
        }
      }
      JOINT ShoulderLeft
      {
        OFFSET -7.729851 -3.764417 -13.867219
        CHANNELS 3 Zrotation Xrotation Yrotation
        JOINT ElbowLeft
        {
          OFFSET -8.067627 -21.883727 -6.712624
          CHANNELS 3 Zrotation Xrotation Yrotation
          JOINT WristLeft
          {
            OFFSET 0.786449 -24.022950 -8.099325
            CHANNELS 3 Zrotation Xrotation Yrotation
            JOINT HandLeft
            {
              OFFSET 0.780372 -8.216579 -3.736826
              CHANNELS 3 Zrotation Xrotation Yrotation
              JOINT HandTipLeft
              {
                OFFSET 0.510043 -6.206723 -1.562263
                CHANNELS 3 Zrotation Xrotation Yrotation
                End Site
                {
                  OFFSET 0 0 0
                }
              }
              JOINT ThumbLeft
              {
                OFFSET -2.963662 -2.469227 -2.117151
                CHANNELS 3 Zrotation Xrotation Yrotation
                End Site
                {
                  OFFSET 0 0 0
                }
              }
            }
          }
        }
      }
      JOINT ShoulderRight
      {
        OFFSET 8.567724 -4.262269 12.245739
        CHANNELS 3 Zrotation Xrotation Yrotation
        JOINT ElbowRight
        {
          OFFSET 0.517687 -24.781141 1.858634
          CHANNELS 3 Zrotation Xrotation Yrotation
          JOINT WristRight
          {
            OFFSET 4.600203 -23.868890 3.980290
            CHANNELS 3 Zrotation Xrotation Yrotation
            JOINT HandRight
            {
              OFFSET 1.706569 -4.853007 0.321227
              CHANNELS 3 Zrotation Xrotation Yrotation
              JOINT HandTipRight
              {
                OFFSET 4.285738 -6.450114 -0.492916
                CHANNELS 3 Zrotation Xrotation Yrotation
                End Site
                {
                  OFFSET 0 0 0
                }
              }
              JOINT ThumbRight
              {
                OFFSET -1.713618 -1.819717 -1.252234
                CHANNELS 3 Zrotation Xrotation Yrotation
                End Site
                {
                  OFFSET 0 0 0
                }
              }
            }
          }
        }
      }
    }
  }
  JOINT HipLeft
  {
    OFFSET -3.127392 1.322212 -8.935154
    CHANNELS 3 Zrotation Xrotation Yrotation
    JOINT KneeLeft
    {
      OFFSET -9.571345 -35.606698 -3.312789
      CHANNELS 3 Zrotation Xrotation Yrotation
      JOINT AnkleLeft
      {
        OFFSET -6.522748 -38.293616 6.432300
        CHANNELS 3 Zrotation Xrotation Yrotation
        JOINT FootLeft
        {
          OFFSET 9.858878 -4.301325 -8.293610
          CHANNELS 3 Zrotation Xrotation Yrotation
          End Site
          {
            OFFSET 0 0 0
          }
        }
      }
    }
  }
  JOINT HipRight
  {
    OFFSET 4.332422 -0.050599 1.409140
    CHANNELS 3 Zrotation Xrotation Yrotation
    JOINT KneeRight
    {
      OFFSET 0.130511 -38.247007 1.512011
      CHANNELS 3 Zrotation Xrotation Yrotation
      JOINT AnkleRight
      {
        OFFSET -5.763115 -36.459107 5.866358
        CHANNELS 3 Zrotation Xrotation Yrotation
        JOINT FootRight
        {
          OFFSET 9.167856 -4.045913 -9.339591
          CHANNELS 3 Zrotation Xrotation Yrotation
          End Site
          {
            OFFSET 0 0 0
          }
        }
      }
    }
  }
}
MOTION
Frames: 15
Frame Time: 0.033333
-47.393316 80.641129 366.116429 -3.675332 -2.419537 -19.930577 0.160007 0.250270 19.745509 0.234833 -0.026323 -0.120971 7.025268 -19.474393 9.592984 0.000000 0.000000 0.000000 1.045471 -1.931020 2.389732 37.165498 9.111348 -17.672517 8.338056 8.405547 -8.484541 10.125885 -7.274108 10.582516 0.000000 0.000000 0.000000 0.000000 0.000000 0.000000 0.638902 -1.008516 -0.072364 -30.632939 58.693303 29.839875 -35.750972 4.757477 -12.386469 27.930844 3.473581 48.510144 0.000000 0.000000 0.000000 0.000000 0.000000 0.000000 0.795704 10.796582 17.932142 -8.883098 -13.716826 0.114828 0.177228 12.459715 32.509203 0.000000 0.000000 0.000000 12.489487 23.202054 18.128184 5.844924 -12.192646 5.474561 -31.849144 -3.460237 20.949108 0.000000 0.000000 0.000000
-44.545466 79.584253 365.520585 -4.598918 -2.167295 -14.800096 0.110846 0.133203 14.567795 0.171277 -0.094715 -0.174010 9.367794 -21.292807 10.356609 0.000000 0.000000 0.000000 0.514500 -3.360741 3.403882 46.709771 12.892649 -23.787646 5.447184 10.475903 -8.351370 14.865796 -12.506994 15.162453 0.000000 0.000000 0.000000 0.000000 0.000000 0.000000 3.235441 0.020407 0.128663 -53.220041 59.189155 42.952364 -32.557801 1.704072 -13.086656 27.118131 7.896086 61.704456 0.000000 0.000000 0.000000 0.000000 0.000000 0.000000 1.101373 11.000683 12.829683 -9.468031 -14.856467 -0.541859 1.861364 14.348470 35.876866 0.000000 0.000000 0.000000 15.215633 22.782549 12.677523 6.516369 -14.233753 6.342511 -30.216903 2.773095 25.960425 0.000000 0.000000 0.000000
-41.570737 78.592837 364.963532 -5.874088 -1.994379 -10.854119 0.120179 0.082369 10.557894 0.096200 -0.129894 -0.240272 12.853823 -22.871582 10.847317 0.000000 0.000000 0.000000 1.127518 -4.183268 3.954763 53.834218 16.389753 -28.854514 8.454212 12.504699 -10.321358 12.322899 -17.196148 20.262461 0.000000 0.000000 0.000000 0.000000 0.000000 0.000000 6.151058 -1.003591 0.290809 -78.687950 57.567487 58.827262 -30.256193 -0.947899 -14.503151 23.885072 6.828227 71.621127 0.000000 0.000000 0.000000 0.000000 0.000000 0.000000 0.987026 10.984885 9.118604 -9.136951 -15.040116 -1.197481 2.204869 13.566622 38.636630 0.000000 0.000000 0.000000 17.680860 23.029659 8.452081 6.330425 -17.194085 7.065547 -29.894331 6.080913 30.429330 0.000000 0.000000 0.000000
-38.426917 77.995053 364.552667 -7.336654 -2.100522 -8.308823 0.092157 0.002590 7.923636 0.386956 -0.143267 -0.290460 14.530331 -23.607302 11.390603 0.000000 0.000000 0.000000 1.369657 -5.375752 4.772908 60.454235 19.168365 -34.203162 11.693066 10.823495 -10.565031 6.623236 -1.957449 13.190925 0.000000 0.000000 0.000000 0.000000 0.000000 0.000000 10.136840 -0.861540 0.520843 -94.250587 53.082325 63.468551 -34.253376 2.008347 -18.259619 24.422502 -1.457685 75.600443 0.000000 0.000000 0.000000 0.000000 0.000000 0.000000 0.893592 10.521578 6.988357 -8.432701 -13.996867 -1.780605 1.113181 10.799609 42.031338 0.000000 0.000000 0.000000 18.817150 23.715952 5.805519 6.137214 -20.293966 7.480783 -29.626165 7.435317 34.615081 0.000000 0.000000 0.000000
-35.168001 77.696985 364.196262 -9.551255 -2.331916 -5.971272 0.042119 -0.057061 5.441532 0.402424 -0.194430 -0.396745 18.873600 -24.537819 11.808522 0.000000 0.000000 0.000000 2.877182 -7.441000 5.928948 67.181790 21.564057 -40.670826 19.628458 2.483735 -7.689214 -5.750644 12.282651 6.090808 0.000000 0.000000 0.000000 0.000000 0.000000 0.000000 15.496497 -0.496508 0.774138 -105.262001 49.066550 64.449824 -41.410248 10.191832 -17.474979 26.867672 -15.853056 71.290904 0.000000 0.000000 0.000000 0.000000 0.000000 0.000000 1.868152 9.819284 5.049416 -7.814839 -12.222364 -2.293018 -0.592654 6.809067 45.622446 0.000000 0.000000 0.000000 20.425727 24.410642 3.358166 6.130949 -22.930673 7.686822 -28.011301 10.578403 38.314947 0.000000 0.000000 0.000000
-32.143301 77.889163 363.973957 -11.903773 -2.810907 -5.016634 0.018831 -0.093820 4.301120 0.432294 -0.186620 -0.503207 22.538676 -25.134215 12.264683 0.000000 0.000000 0.000000 4.205020 -9.459804 7.177374 72.639730 23.137237 -46.225861 34.026777 -11.791266 1.854933 -21.303949 30.895083 -0.172745 0.000000 0.000000 0.000000 0.000000 0.000000 0.000000 20.012823 -1.683972 0.974117 -113.474023 45.749271 66.395704 -47.338094 15.058634 -27.630044 39.103110 -12.906925 85.649652 0.000000 0.000000 0.000000 0.000000 0.000000 0.000000 3.221457 8.598956 4.523837 -7.012539 -9.400069 -2.637850 -3.133275 1.476962 48.959332 0.000000 0.000000 0.000000 20.946182 25.189843 2.449963 6.894904 -24.630530 7.796938 -26.558158 11.626445 39.165617 0.000000 0.000000 0.000000
-29.555369 78.517229 363.891342 -14.030595 -3.548005 -4.643544 0.027578 -0.111637 3.708303 0.459775 -0.152299 -0.593499 24.228193 -25.242948 12.833233 0.000000 0.000000 0.000000 4.869368 -11.361098 8.501396 77.012590 23.548757 -50.576790 51.657401 -29.975665 23.606073 -36.417579 66.199100 -6.095395 0.000000 0.000000 0.000000 0.000000 0.000000 0.000000 22.960801 -3.552763 1.064316 -117.896548 43.108204 68.212970 -48.519461 9.834590 -93.563528 21.423456 42.872584 157.286595 0.000000 0.000000 0.000000 0.000000 0.000000 0.000000 4.396830 7.370935 4.543215 -5.806875 -6.084415 -2.874087 -6.036631 -4.556177 51.682962 0.000000 0.000000 0.000000 21.122377 25.710074 2.095040 7.458931 -25.158173 7.528327 -26.680472 9.034536 40.153138 0.000000 0.000000 0.000000
-27.004678 79.065166 363.779136 -15.943298 -4.369370 -4.012190 0.085776 -0.110282 2.835531 0.497496 -0.106494 -0.668309 26.181528 -25.469445 13.314738 0.000000 0.000000 0.000000 5.597598 -12.637643 9.517258 79.970527 23.574133 -53.576706 74.181645 -40.820504 52.507565 157.737492 87.041759 151.292817 0.000000 0.000000 0.000000 0.000000 0.000000 0.000000 24.819675 -5.550197 1.060845 -121.346909 40.935155 71.346518 -49.175525 0.434309 -114.244643 -33.961823 52.798798 -140.045618 0.000000 0.000000 0.000000 0.000000 0.000000 0.000000 5.199217 6.049410 4.301247 -4.340297 -3.086037 -3.152682 -9.201661 -11.217331 53.593027 0.000000 0.000000 0.000000 21.177302 25.921369 1.476353 8.955055 -24.797802 7.542475 -27.483835 6.259160 40.936199 0.000000 0.000000 0.000000
-25.004150 79.665839 363.757385 -17.257270 -5.136631 -3.030400 0.154669 -0.067507 1.647421 0.516139 -0.045558 -0.713183 26.554377 -25.704647 13.979383 0.000000 0.000000 0.000000 6.978065 -13.949213 10.197736 81.155169 24.861502 -56.360263 80.912183 -45.720303 66.110541 138.999877 74.372295 171.055716 0.000000 0.000000 0.000000 0.000000 0.000000 0.000000 25.235030 -6.887502 0.934205 -121.786888 40.811802 74.761137 -50.898135 -3.313181 -118.455875 -73.279100 45.089898 -98.973915 0.000000 0.000000 0.000000 0.000000 0.000000 0.000000 5.546166 5.035197 3.612388 -2.795246 -0.958127 -3.374721 -12.301116 -17.188953 54.449768 0.000000 0.000000 0.000000 20.761546 25.191115 0.597576 10.948466 -23.210722 7.547206 -28.611424 3.583697 41.726592 0.000000 0.000000 0.000000
-23.426123 80.093280 363.805736 -18.012836 -5.801533 -1.358728 0.267337 -0.021806 -0.182370 0.542907 0.003410 -0.731519 26.609339 -25.948529 14.504504 0.000000 0.000000 0.000000 7.289002 -14.845593 10.772623 81.267070 25.549951 -57.499555 84.877211 -49.943399 75.129232 137.309982 63.928980 174.803599 0.000000 0.000000 0.000000 0.000000 0.000000 0.000000 24.775189 -6.767832 0.707264 -116.358094 42.695248 72.595753 -49.490058 -0.179002 -91.717896 -80.381860 63.443161 -91.980055 0.000000 0.000000 0.000000 0.000000 0.000000 0.000000 5.220456 4.322427 2.214876 -1.134973 0.288132 -3.585833 -14.675240 -21.288305 55.354617 0.000000 0.000000 0.000000 20.639130 23.673489 -1.036656 11.915270 -21.216814 7.104279 -29.080807 1.539823 42.598721 0.000000 0.000000 0.000000
-21.537970 80.381525 363.852074 -18.179949 -6.351616 1.554249 0.428502 0.001808 -3.191300 0.575018 0.028532 -0.724535 25.879844 -26.170105 14.999632 0.000000 0.000000 0.000000 7.498791 -14.931766 10.911904 80.739762 25.535490 -57.678054 85.564114 -52.175017 78.545929 135.067998 59.982247 179.085456 0.000000 0.000000 0.000000 0.000000 0.000000 0.000000 23.154084 -5.819840 0.434558 -115.689868 42.665985 73.149416 -44.347953 -1.389635 -68.922101 -89.439677 83.056030 -84.277799 0.000000 0.000000 0.000000 0.000000 0.000000 0.000000 3.961999 4.044139 -0.378314 -0.107681 0.681243 -3.918769 -14.886502 -22.956841 56.513713 0.000000 0.000000 0.000000 19.920371 21.515999 -3.750257 13.150087 -19.026569 6.638176 -29.211531 0.236098 43.960650 0.000000 0.000000 0.000000
-20.112371 80.506111 363.978508 -17.866710 -6.657777 5.246324 0.409219 -0.007644 -6.897807 0.494989 0.033866 -0.710679 26.156607 -26.460150 15.153335 0.000000 0.000000 0.000000 6.984268 -14.693447 10.981357 81.899597 24.426491 -58.063978 76.881234 -53.113657 71.586159 132.091948 61.822842 -175.965033 0.000000 0.000000 0.000000 0.000000 0.000000 0.000000 22.040662 -3.871866 0.259091 -117.614024 41.277056 72.791563 -32.597892 -13.561232 -51.458036 79.294230 79.182396 93.462724 0.000000 0.000000 0.000000 0.000000 0.000000 0.000000 2.295701 4.287784 -3.763998 0.235358 0.107938 -4.250616 -13.135689 -21.621555 57.516054 0.000000 0.000000 0.000000 19.407535 18.891281 -7.236951 13.859045 -16.793201 6.094495 -29.040635 -0.133545 45.325881 0.000000 0.000000 0.000000
-19.047623 80.444892 363.966948 -17.678179 -6.946583 9.324740 0.517495 -0.017102 -10.998350 0.538408 0.023597 -0.696162 26.583422 -26.398139 14.955526 0.000000 0.000000 0.000000 6.818209 -13.692329 10.686740 81.040952 24.827603 -57.144436 71.100289 -50.629689 62.117057 130.122992 66.758593 -175.282592 0.000000 0.000000 0.000000 0.000000 0.000000 0.000000 21.485993 -1.800545 0.138925 -122.693099 38.262136 72.296911 -15.210196 -21.802190 -26.651280 69.179566 56.827194 90.418054 0.000000 0.000000 0.000000 0.000000 0.000000 0.000000 0.859626 5.172593 -7.585860 0.635171 -0.788124 -4.544604 -12.905429 -23.668939 57.198455 0.000000 0.000000 0.000000 19.497632 16.296781 -11.187538 14.064184 -14.755709 5.533807 -28.527209 0.402949 46.593508 0.000000 0.000000 0.000000
-18.145722 80.346359 363.985276 -17.928822 -7.260399 12.063964 0.453618 -0.073385 -13.815471 0.502865 -0.014367 -0.713361 27.391367 -26.169139 14.770585 0.000000 0.000000 0.000000 7.277966 -13.439822 10.717695 80.954772 24.889497 -57.297573 66.707357 -51.180799 58.753646 130.557616 68.726571 -173.670166 0.000000 0.000000 0.000000 0.000000 0.000000 0.000000 21.939196 -0.437847 0.022139 -127.419247 36.376849 73.986221 -8.082990 -24.860315 -19.029030 62.038332 49.561741 92.477125 0.000000 0.000000 0.000000 0.000000 0.000000 0.000000 0.143406 5.926986 -10.137722 1.228522 -1.464179 -4.758348 -12.655186 -24.505189 57.543024 0.000000 0.000000 0.000000 19.625452 14.525797 -13.858081 14.296608 -13.096003 5.089243 -28.121637 0.603103 47.335452 0.000000 0.000000 0.000000
-17.477128 80.152648 363.997072 -18.261225 -7.525845 14.574427 0.315417 -0.140630 -16.410082 0.459739 -0.078998 -0.741021 28.434874 -25.744904 14.405440 0.000000 0.000000 0.000000 7.971140 -13.248573 10.754922 80.812533 24.983233 -57.529057 61.201241 -52.070945 55.039201 130.581205 70.975627 -170.731974 0.000000 0.000000 0.000000 0.000000 0.000000 0.000000 23.031875 0.927054 -0.106039 -133.341242 34.087039 76.174147 -5.782224 -25.664356 -17.075102 51.012431 42.052360 100.530637 0.000000 0.000000 0.000000 0.000000 0.000000 0.000000 -0.307057 6.855220 -12.503292 1.800048 -2.371929 -4.927680 -12.439973 -25.203114 57.973733 0.000000 0.000000 0.000000 19.948139 12.867999 -16.314314 14.336021 -11.586174 4.672274 -27.521413 1.294480 47.843484 0.000000 0.000000 0.000000
